0
SECTION
2
HEADER
9
$INSUNITS
70
4
0
ENDSEC
0
SECTION
2
TABLES
0
TABLE
2
LTYPE
0
LTYPE
72
65
70
64
2
CONTINUOUS
3
______
73
0
40
0
0
ENDTAB
0
TABLE
2
LAYER
0
ENDTAB
0
ENDSEC
0
SECTION
2
ENTITIES
0
LINE
8
0
10
39.9083468
20
-91.0705663
11
58.3877584
21
-89.4538273
0
LINE
8
0
10
58.3877584
20
-89.4538273
11
56.7710194
21
-70.9744157
0
LINE
8
0
10
56.7710194
20
-70.9744157
11
38.2916078
21
-72.5911547
0
LINE
8
0
10
38.2916078
20
-72.5911547
11
39.9083468
21
-91.0705663
0
LINE
8
0
10
38.2480299
20
-72.0930573
11
56.7274415
21
-70.4763183
0
LINE
8
0
10
56.7274415
20
-70.4763183
11
55.1107025
21
-51.9969067
0
LINE
8
0
10
55.1107025
20
-51.9969067
11
36.6312909
21
-53.6136457
0
LINE
8
0
10
36.6312909
20
-53.6136457
11
38.2480299
21
-72.0930573
0
LINE
8
0
10
60.0812837
20
-103.6477389
11
78.5606953
21
-102.0309999
0
LINE
8
0
10
78.5606953
20
-102.0309999
11
76.9439563
21
-83.5515883
0
LINE
8
0
10
76.9439563
20
-83.5515883
11
58.4645447
21
-85.1683273
0
LINE
8
0
10
58.4645447
20
-85.1683273
11
60.0812837
21
-103.6477389
0
LINE
8
0
10
58.4209668
20
-84.6702299
11
76.9003784
21
-83.0534909
0
LINE
8
0
10
76.9003784
20
-83.0534909
11
75.2836394
21
-64.5740793
0
LINE
8
0
10
75.2836394
20
-64.5740793
11
56.8042278
21
-66.1908183
0
LINE
8
0
10
56.8042278
20
-66.1908183
11
58.4209668
21
-84.6702299
0
LINE
8
0
10
56.7606499
20
-65.6927209
11
75.2400615
21
-64.0759819
0
LINE
8
0
10
75.2400615
20
-64.0759819
11
73.6233225
21
-45.5965703
0
LINE
8
0
10
73.6233225
20
-45.5965703
11
55.1439109
21
-47.2133093
0
LINE
8
0
10
55.1439109
20
-47.2133093
11
56.7606499
21
-65.6927209
0
LINE
8
0
10
78.0657048
20
-88.6063928
11
96.6157048
21
-88.6063928
0
LINE
8
0
10
96.6157048
20
-88.6063928
11
96.6157048
21
-70.0563928
0
LINE
8
0
10
96.6157048
20
-70.0563928
11
78.0657048
21
-70.0563928
0
LINE
8
0
10
78.0657048
20
-70.0563928
11
78.0657048
21
-88.6063928
0
LINE
8
0
10
78.0657048
20
-69.5563928
11
96.6157048
21
-69.5563928
0
LINE
8
0
10
96.6157048
20
-69.5563928
11
96.6157048
21
-51.0063928
0
LINE
8
0
10
96.6157048
20
-51.0063928
11
78.0657048
21
-51.0063928
0
LINE
8
0
10
78.0657048
20
-51.0063928
11
78.0657048
21
-69.5563928
0
LINE
8
0
10
78.0657048
20
-50.5063928
11
96.6157048
21
-50.5063928
0
LINE
8
0
10
96.6157048
20
-50.5063928
11
96.6157048
21
-31.9563928
0
LINE
8
0
10
96.6157048
20
-31.9563928
11
78.0657048
21
-31.9563928
0
LINE
8
0
10
78.0657048
20
-31.9563928
11
78.0657048
21
-50.5063928
0
LINE
8
0
10
97.0657049
20
-83.8438928
11
115.6157049
21
-83.8438928
0
LINE
8
0
10
115.6157049
20
-83.8438928
11
115.6157049
21
-65.2938928
0
LINE
8
0
10
115.6157049
20
-65.2938928
11
97.0657049
21
-65.2938928
0
LINE
8
0
10
97.0657049
20
-65.2938928
11
97.0657049
21
-83.8438928
0
LINE
8
0
10
97.0657049
20
-64.7938928
11
115.6157049
21
-64.7938928
0
LINE
8
0
10
115.6157049
20
-64.7938928
11
115.6157049
21
-46.2438928
0
LINE
8
0
10
115.6157049
20
-46.2438928
11
97.0657049
21
-46.2438928
0
LINE
8
0
10
97.0657049
20
-46.2438928
11
97.0657049
21
-64.7938928
0
LINE
8
0
10
97.0657049
20
-45.7438928
11
115.6157049
21
-45.7438928
0
LINE
8
0
10
115.6157049
20
-45.7438928
11
115.6157049
21
-27.1938928
0
LINE
8
0
10
115.6157049
20
-27.1938928
11
97.0657049
21
-27.1938928
0
LINE
8
0
10
97.0657049
20
-27.1938928
11
97.0657049
21
-45.7438928
0
LINE
8
0
10
116.0657049
20
-92.4163927
11
134.6157049
21
-92.4163927
0
LINE
8
0
10
134.6157049
20
-92.4163927
11
134.6157049
21
-73.8663927
0
LINE
8
0
10
134.6157049
20
-73.8663927
11
116.0657049
21
-73.8663927
0
LINE
8
0
10
116.0657049
20
-73.8663927
11
116.0657049
21
-92.4163927
0
LINE
8
0
10
116.0657049
20
-73.3663927
11
134.6157049
21
-73.3663927
0
LINE
8
0
10
134.6157049
20
-73.3663927
11
134.6157049
21
-54.8163927
0
LINE
8
0
10
134.6157049
20
-54.8163927
11
116.0657049
21
-54.8163927
0
LINE
8
0
10
116.0657049
20
-54.8163927
11
116.0657049
21
-73.3663927
0
LINE
8
0
10
116.0657049
20
-54.3163927
11
134.6157049
21
-54.3163927
0
LINE
8
0
10
134.6157049
20
-54.3163927
11
134.6157049
21
-35.7663927
0
LINE
8
0
10
134.6157049
20
-35.7663927
11
116.0657049
21
-35.7663927
0
LINE
8
0
10
116.0657049
20
-35.7663927
11
116.0657049
21
-54.3163927
0
LINE
8
0
10
135.0657049
20
-95.2738928
11
153.6157049
21
-95.2738928
0
LINE
8
0
10
153.6157049
20
-95.2738928
11
153.6157049
21
-76.7238928
0
LINE
8
0
10
153.6157049
20
-76.7238928
11
135.0657049
21
-76.7238928
0
LINE
8
0
10
135.0657049
20
-76.7238928
11
135.0657049
21
-95.2738928
0
LINE
8
0
10
135.0657049
20
-76.2238928
11
153.6157049
21
-76.2238928
0
LINE
8
0
10
153.6157049
20
-76.2238928
11
153.6157049
21
-57.6738928
0
LINE
8
0
10
153.6157049
20
-57.6738928
11
135.0657049
21
-57.6738928
0
LINE
8
0
10
135.0657049
20
-57.6738928
11
135.0657049
21
-76.2238928
0
LINE
8
0
10
135.0657049
20
-57.1738928
11
153.6157049
21
-57.1738928
0
LINE
8
0
10
153.6157049
20
-57.1738928
11
153.6157049
21
-38.6238928
0
LINE
8
0
10
153.6157049
20
-38.6238928
11
135.0657049
21
-38.6238928
0
LINE
8
0
10
135.0657049
20
-38.6238928
11
135.0657049
21
-57.1738928
0
LINE
8
0
10
128.692819
20
-113.4498049
11
146.1241171
21
-119.7942786
0
LINE
8
0
10
146.1241171
20
-119.7942786
11
152.4685908
21
-102.3629805
0
LINE
8
0
10
152.4685908
20
-102.3629805
11
135.0372927
21
-96.0185068
0
LINE
8
0
10
135.0372927
20
-96.0185068
11
128.692819
21
-113.4498049
0
LINE
8
0
10
146.5939634
20
-119.9652886
11
164.0252615
21
-126.3097623
0
LINE
8
0
10
164.0252615
20
-126.3097623
11
170.3697352
21
-108.8784642
0
LINE
8
0
10
170.3697352
20
-108.8784642
11
152.9384371
21
-102.5339905
0
LINE
8
0
10
152.9384371
20
-102.5339905
11
146.5939634
21
-119.9652886
0
LINE
8
0
10
122.1773353
20
-131.3509493
11
139.6086334
21
-137.695423
0
LINE
8
0
10
139.6086334
20
-137.695423
11
145.9531071
21
-120.2641249
0
LINE
8
0
10
145.9531071
20
-120.2641249
11
128.521809
21
-113.9196512
0
LINE
8
0
10
128.521809
20
-113.9196512
11
122.1773353
21
-131.3509493
0
LINE
8
0
10
140.0784797
20
-137.866433
11
157.5097778
21
-144.2109067
0
LINE
8
0
10
157.5097778
20
-144.2109067
11
163.8542515
21
-126.7796086
0
LINE
8
0
10
163.8542515
20
-126.7796086
11
146.4229534
21
-120.4351349
0
LINE
8
0
10
146.4229534
20
-120.4351349
11
140.0784797
21
-137.866433
0
LINE
8
0
10
178.9911511
20
-152.0294872
11
185.3356248
21
-134.5981891
0
LINE
8
0
10
185.3356248
20
-134.5981891
11
167.9043267
21
-128.2537154
0
LINE
8
0
10
167.9043267
20
-128.2537154
11
161.559853
21
-145.6850135
0
LINE
8
0
10
161.559853
20
-145.6850135
11
178.9911511
21
-152.0294872
0
ENDSEC
0
EOF