0
SECTION
2
HEADER
9
$INSUNITS
70
4
0
ENDSEC
0
SECTION
2
TABLES
0
TABLE
2
LTYPE
0
LTYPE
72
65
70
64
2
CONTINUOUS
3
______
73
0
40
0
0
ENDTAB
0
TABLE
2
LAYER
0
ENDTAB
0
ENDSEC
0
SECTION
2
ENTITIES
0
LINE
8
0
10
37.8630091
20
-93.5081048
11
46.8287614
21
-92.7237031
0
LINE
8
0
10
34.1937524
20
-51.568308
11
37.8630091
21
-93.5081048
0
LINE
8
0
10
34.1937524
20
-51.568308
11
53.1214516
21
-49.912349
0
LINE
8
0
10
58.035946
20
-106.0852774
11
80.9982338
21
-104.0763376
0
LINE
8
0
10
79.8416385
20
-90.8563928
11
80.9982338
21
-104.0763376
0
LINE
8
0
10
57.2471866
20
-97.0697154
11
58.035946
21
-106.0852774
0
LINE
8
0
10
57.2471866
20
-97.0697154
11
47.2852396
21
-97.9412728
0
LINE
8
0
10
47.2852396
20
-97.9412728
11
46.8287614
21
-92.7237031
0
LINE
8
0
10
75.8157048
20
-44.8397594
11
75.6686602
21
-43.1590318
0
LINE
8
0
10
75.6686602
20
-43.1590318
11
52.7063724
21
-45.1679716
0
LINE
8
0
10
52.7063724
20
-45.1679716
11
53.1214516
21
-49.912349
0
LINE
8
0
10
79.8416385
20
-90.8563928
11
98.8657048
21
-90.8563928
0
LINE
8
0
10
98.8657048
20
-90.8563928
11
98.8657048
21
-86.0938928
0
LINE
8
0
10
75.8157048
20
-44.8397594
11
75.8157048
21
-29.7063928
0
LINE
8
0
10
75.8157048
20
-29.7063928
11
94.8157049
21
-29.7063928
0
LINE
8
0
10
98.8657048
20
-86.0938928
11
113.8157049
21
-86.0938928
0
LINE
8
0
10
117.8657049
20
-33.5163927
11
117.8657049
21
-24.9438928
0
LINE
8
0
10
117.8657049
20
-24.9438928
11
94.8157049
21
-24.9438928
0
LINE
8
0
10
94.8157049
20
-24.9438928
11
94.8157049
21
-29.7063928
0
LINE
8
0
10
113.8157049
20
-94.6663927
11
132.8157049
21
-94.6663927
0
LINE
8
0
10
113.8157049
20
-86.0938928
11
113.8157049
21
-94.6663927
0
LINE
8
0
10
136.8657049
20
-36.3738928
11
136.8657049
21
-33.5163927
0
LINE
8
0
10
117.8657049
20
-33.5163927
11
136.8657049
21
-33.5163927
0
LINE
8
0
10
145.7518666
20
-97.5238928
11
155.8657049
21
-97.5238928
0
LINE
8
0
10
155.8657049
20
-97.5238928
11
155.8657049
21
-36.3738928
0
LINE
8
0
10
132.8157049
20
-94.6663927
11
132.8157049
21
-95.5437092
0
LINE
8
0
10
136.8657049
20
-36.3738928
11
155.8657049
21
-36.3738928
0
LINE
8
0
10
145.7518666
20
-97.5238928
11
173.2535889
21
-107.5337011
0
LINE
8
0
10
119.2934816
20
-132.6957124
11
132.8157049
21
-95.5437092
0
LINE
8
0
10
166.7381052
20
-125.4348455
11
173.2535889
21
-107.5337011
0
LINE
8
0
10
119.2934816
20
-132.6957124
11
180.3359142
21
-154.9133409
0
LINE
8
0
10
180.3359142
20
-154.9133409
11
188.2194785
21
-133.253426
0
LINE
8
0
10
188.2194785
20
-133.253426
11
166.7381052
21
-125.4348455
0
ENDSEC
0
EOF