<?xml version="1.0" encoding="UTF-8" standalone="no"?>
<svg
   width="125"
   height="32"
   fill="none"
   viewBox="0 0 255 65"
   version="1.1"
   id="svg1"
   xmlns="http://www.w3.org/2000/svg"
   xmlns:svg="http://www.w3.org/2000/svg">
  <defs
     id="defs1" />
  <path
     fill="#232323"
     d="M 0,0 V 64.944 H 255 V 0 Z M 89.477,60.464 H 4.474 V 4.478 h 85.003 z m 54.947,-6.74 H 121.16 V 11.112 h 4.183 v 38.717 h 19.081 z m 39.556,0 h -3.964 V 39.177 h -20.914 v 14.547 h -3.964 V 27.35 c 0,-2.866 0.44,-4.482 2.275,-6.319 l 9.614,-9.918 h 5.064 l 9.614,9.924 c 1.835,1.837 2.275,3.453 2.275,6.319 v 26.37 z m 39.337,-32.179 h -4.036 V 19.34 c 0,-2.35 -1.91,-4.554 -4.33,-4.554 h -12.11 c -2.422,0 -4.33,2.35 -4.33,4.7 v 25.642 c 0,2.35 1.908,4.628 4.33,4.628 h 12.11 c 2.42,0 4.33,-2.13 4.33,-4.481 v -11.02 h -8.734 v -3.747 h 12.77 v 14.4 c 0,5.216 -3.67,8.815 -8.734,8.815 h -11.375 c -5.063,0 -8.733,-4.041 -8.733,-9.257 V 20.22 c 0,-5.216 3.67,-9.11 8.733,-9.11 h 11.375 c 5.064,0 8.734,3.6 8.734,8.815 z M 53.691,26.87 h 4.47 v -2.24 h 2.237 V 22.392 H 58.162 V 20.15 h -2.238 v -2.239 h -2.237 v -4.48 H 51.451 V 11.193 H 38.028 v 2.239 h -2.236 v 4.48 h -2.237 l 0.024,6.845 v 2.164 l -0.018,8.965 v 11.139 h -2.244 v 2.239 h -2.236 l -0.01,0.127 0.01,2.111 h 6.71 l 0.012,0.136 -0.011,2.107 h 8.948 v -2.243 h 2.237 v 2.243 H 58.162 V 51.502 H 53.687 L 53.691,26.868 Z M 44.744,20.152 H 42.51 v -2.239 h 2.23 z m 13.418,4.48 H 46.977 l -0.02,-2.247 h 2.248 v -2.266 l 6.724,0.033 v 2.24 h 2.233 z M 80.53,47.025 H 60.398 v -2.24 H 80.53 Z m -53.685,0 h -17.9 v -2.24 h 17.9 z m 58.16,4.477 h -8.95 v -2.238 h 8.95 z m -64.871,2.243 h -6.71 v -2.239 h 6.71 v 2.24 z m 49.227,0 h -4.489 v -2.243 h 4.489 z M 42.379,26.87 h 9.072 v 22.396 h -8.94 z m 137.637,8.857 H 159.102 V 27.79 c 0,-1.837 0,-2.791 1.395,-4.262 l 8.585,-8.889 h 1.101 l 8.44,8.889 c 1.321,1.47 1.393,2.425 1.393,4.262 v 7.936 z m 0,-7.934 v 7.934 H 159.102 V 27.79 c 0,-1.837 0,-2.791 1.395,-4.262 l 8.585,-8.889 h 1.101 l 8.44,8.889 c 1.321,1.47 1.393,2.425 1.393,4.262 v 0.002 z"
     id="path1" />
</svg>
