0
SECTION
2
HEADER
9
$INSUNITS
70
4
0
ENDSEC
0
SECTION
2
TABLES
0
TABLE
2
LTYPE
0
LTYPE
72
65
70
64
2
CONTINUOUS
3
______
73
0
40
0
0
ENDTAB
0
TABLE
2
LAYER
0
ENDTAB
0
ENDSEC
0
SECTION
2
ENTITIES
0
LINE
8
0
10
57.2513522
20
-128.1761948
11
77.4345849
21
-52.8513448
0
LINE
8
0
10
80.6219239
20
-50.6418089
11
138.3962428
21
-56.2443722
0
LINE
8
0
10
138.8831384
20
-56.3325877
11
160.8904154
21
-62.2294197
0
LINE
8
0
10
160.9255112
20
-62.2385965
11
219.069414
21
-77.0670491
0
LINE
8
0
10
221.2258303
20
-80.7504604
11
199.415721
21
-162.1468963
0
LINE
8
0
10
199.9692382
20
-164.7953693
11
214.0172838
21
-182.3872492
0
LINE
8
0
10
214.2710997
20
-185.7592651
11
199.2713513
21
-211.7395915
0
LINE
8
0
10
195.6346871
20
-213.0540781
11
177.3932356
21
-206.3227083
0
LINE
8
0
10
176.9318236
20
-206.1062978
11
157.6007787
21
-194.9455139
0
LINE
8
0
10
156.8745677
20
-194.3584038
11
129.8957334
21
-164.4918756
0
LINE
8
0
10
128.9195879
20
-163.7756937
11
58.8990642
21
-131.6797998
0
ARC
8
0
10
80.3323624
20
-53.6278019
40
3
50
84.4611598
51
165.0000021
0
ARC
8
0
10
138.1066813
20
-59.2303652
40
3
50
75.0000021
51
84.4611598
0
ARC
8
0
10
161.6668724
20
-59.3316422
40
3
50
255.0000021
51
255.6928228
0
ARC
8
0
10
218.3280528
20
-79.9740034
40
3
50
345.0000021
51
75.6928228
0
ARC
8
0
10
202.3134985
20
-162.9233534
40
3
50
165.0000021
51
218.6092166
0
ARC
8
0
10
211.6730235
20
-184.2592651
40
3
50
329.9999999
51
38.6092166
0
ARC
8
0
10
196.6732751
20
-210.2395915
40
3
50
249.7451787
51
329.9999999
0
ARC
8
0
10
178.4318236
20
-203.5082216
40
3
50
239.9999999
51
249.7451787
0
ARC
8
0
10
159.1007787
20
-192.3474377
40
3
50
222.091924
51
239.9999999
0
ARC
8
0
10
127.6695224
20
-166.5028417
40
3
50
42.091924
51
65.3743047
0
ARC
8
0
10
60.1491297
20
-128.9526519
40
3
50
165.0000021
51
245.3743047
0
LINE
8
0
10
59.3511694
20
-129.0329025
11
77.2690935
21
-133.8339958
0
LINE
8
0
10
77.2690935
20
-133.8339958
11
82.0701868
21
-115.9160717
0
LINE
8
0
10
82.0701868
20
-115.9160717
11
64.1522627
21
-111.1149784
0
LINE
8
0
10
64.1522627
20
-111.1149784
11
59.3511694
21
-129.0329025
0
LINE
8
0
10
64.5281974
20
-109.7119712
11
82.4461215
21
-114.5130645
0
LINE
8
0
10
82.4461215
20
-114.5130645
11
87.2472148
21
-96.5951404
0
LINE
8
0
10
87.2472148
20
-96.5951404
11
69.3292907
21
-91.7940471
0
LINE
8
0
10
69.3292907
20
-91.7940471
11
64.5281974
21
-109.7119712
0
LINE
8
0
10
69.7052253
20
-90.3910399
11
87.6231494
21
-95.1921332
0
LINE
8
0
10
87.6231494
20
-95.1921332
11
92.4242427
21
-77.2742091
0
LINE
8
0
10
92.4242427
20
-77.2742091
11
74.5063186
21
-72.4731158
0
LINE
8
0
10
74.5063186
20
-72.4731158
11
69.7052253
21
-90.3910399
0
LINE
8
0
10
74.8822533
20
-71.0701085
11
92.8001774
21
-75.8712018
0
LINE
8
0
10
92.8001774
20
-75.8712018
11
97.6012707
21
-57.9532777
0
LINE
8
0
10
97.6012707
20
-57.9532777
11
79.6833466
21
-53.1521844
0
LINE
8
0
10
79.6833466
20
-53.1521844
11
74.8822533
21
-71.0701085
0
LINE
8
0
10
78.6721008
20
-134.2099305
11
96.5900249
21
-139.0110238
0
LINE
8
0
10
96.5900249
20
-139.0110238
11
101.3911182
21
-121.0930997
0
LINE
8
0
10
101.3911182
20
-121.0930997
11
83.4731941
21
-116.2920064
0
LINE
8
0
10
83.4731941
20
-116.2920064
11
78.6721008
21
-134.2099305
0
LINE
8
0
10
83.8491287
20
-114.8889991
11
101.7670528
21
-119.6900924
0
LINE
8
0
10
101.7670528
20
-119.6900924
11
106.5681461
21
-101.7721683
0
LINE
8
0
10
106.5681461
20
-101.7721683
11
88.650222
21
-96.971075
0
LINE
8
0
10
88.650222
20
-96.971075
11
83.8491287
21
-114.8889991
0
LINE
8
0
10
89.0261567
20
-95.5680678
11
106.9440808
21
-100.3691611
0
LINE
8
0
10
106.9440808
20
-100.3691611
11
111.7451741
21
-82.451237
0
LINE
8
0
10
111.7451741
20
-82.451237
11
93.82725
21
-77.6501437
0
LINE
8
0
10
93.82725
20
-77.6501437
11
89.0261567
21
-95.5680678
0
LINE
8
0
10
94.2031846
20
-76.2471365
11
112.1211087
21
-81.0482298
0
LINE
8
0
10
112.1211087
20
-81.0482298
11
116.922202
21
-63.1303057
0
LINE
8
0
10
116.922202
20
-63.1303057
11
99.0042779
21
-58.3292124
0
LINE
8
0
10
99.0042779
20
-58.3292124
11
94.2031846
21
-76.2471365
0
LINE
8
0
10
99.2871273
20
-134.5573293
11
117.2050514
21
-139.3584226
0
LINE
8
0
10
117.2050514
20
-139.3584226
11
122.0061447
21
-121.4404985
0
LINE
8
0
10
122.0061447
20
-121.4404985
11
104.0882206
21
-116.6394052
0
LINE
8
0
10
104.0882206
20
-116.6394052
11
99.2871273
21
-134.5573293
0
LINE
8
0
10
104.4641553
20
-115.236398
11
122.3820794
21
-120.0374913
0
LINE
8
0
10
122.3820794
20
-120.0374913
11
127.1831727
21
-102.1195672
0
LINE
8
0
10
127.1831727
20
-102.1195672
11
109.2652486
21
-97.3184739
0
LINE
8
0
10
109.2652486
20
-97.3184739
11
104.4641553
21
-115.236398
0
LINE
8
0
10
109.6411832
20
-95.9154666
11
127.5591073
21
-100.7165599
0
LINE
8
0
10
127.5591073
20
-100.7165599
11
132.3602006
21
-82.7986358
0
LINE
8
0
10
132.3602006
20
-82.7986358
11
114.4422765
21
-77.9975425
0
LINE
8
0
10
114.4422765
20
-77.9975425
11
109.6411832
21
-95.9154666
0
LINE
8
0
10
114.8182112
20
-76.5945353
11
132.7361353
21
-81.3956286
0
LINE
8
0
10
132.7361353
20
-81.3956286
11
137.5372286
21
-63.4777045
0
LINE
8
0
10
137.5372286
20
-63.4777045
11
119.6193045
21
-58.6766112
0
LINE
8
0
10
119.6193045
20
-58.6766112
11
114.8182112
21
-76.5945353
0
LINE
8
0
10
119.9021539
20
-134.9047281
11
137.820078
21
-139.7058214
0
LINE
8
0
10
137.820078
20
-139.7058214
11
142.6211713
21
-121.7878973
0
LINE
8
0
10
142.6211713
20
-121.7878973
11
124.7032472
21
-116.986804
0
LINE
8
0
10
124.7032472
20
-116.986804
11
119.9021539
21
-134.9047281
0
LINE
8
0
10
125.0791818
20
-115.5837968
11
142.9971059
21
-120.3848901
0
LINE
8
0
10
142.9971059
20
-120.3848901
11
147.7981992
21
-102.466966
0
LINE
8
0
10
147.7981992
20
-102.466966
11
129.8802751
21
-97.6658727
0
LINE
8
0
10
129.8802751
20
-97.6658727
11
125.0791818
21
-115.5837968
0
LINE
8
0
10
130.2562098
20
-96.2628654
11
148.1741339
21
-101.0639587
0
LINE
8
0
10
148.1741339
20
-101.0639587
11
152.9752272
21
-83.1460346
0
LINE
8
0
10
152.9752272
20
-83.1460346
11
135.0573031
21
-78.3449413
0
LINE
8
0
10
135.0573031
20
-78.3449413
11
130.2562098
21
-96.2628654
0
LINE
8
0
10
135.4332377
20
-76.9419341
11
153.3511618
21
-81.7430274
0
LINE
8
0
10
153.3511618
20
-81.7430274
11
158.1522551
21
-63.8251033
0
LINE
8
0
10
158.1522551
20
-63.8251033
11
140.234331
21
-59.02401
0
LINE
8
0
10
140.234331
20
-59.02401
11
135.4332377
21
-76.9419341
0
LINE
8
0
10
138.5760376
20
-142.4965706
11
156.4939617
21
-147.2976639
0
LINE
8
0
10
156.4939617
20
-147.2976639
11
161.295055
21
-129.3797398
0
LINE
8
0
10
161.295055
20
-129.3797398
11
143.3771309
21
-124.5786465
0
LINE
8
0
10
143.3771309
20
-124.5786465
11
138.5760376
21
-142.4965706
0
LINE
8
0
10
143.7530656
20
-123.1756393
11
161.6709897
21
-127.9767326
0
LINE
8
0
10
161.6709897
20
-127.9767326
11
166.472083
21
-110.0588085
0
LINE
8
0
10
166.472083
20
-110.0588085
11
148.5541589
21
-105.2577152
0
LINE
8
0
10
148.5541589
20
-105.2577152
11
143.7530656
21
-123.1756393
0
LINE
8
0
10
148.9300935
20
-103.854708
11
166.8480176
21
-108.6558013
0
LINE
8
0
10
166.8480176
20
-108.6558013
11
171.6491109
21
-90.7378772
0
LINE
8
0
10
171.6491109
20
-90.7378772
11
153.7311868
21
-85.9367839
0
LINE
8
0
10
153.7311868
20
-85.9367839
11
148.9300935
21
-103.854708
0
LINE
8
0
10
154.1071215
20
-84.5337766
11
172.0250456
21
-89.3348699
0
LINE
8
0
10
172.0250456
20
-89.3348699
11
176.8261389
21
-71.4169458
0
LINE
8
0
10
176.8261389
20
-71.4169458
11
158.9082148
21
-66.6158525
0
LINE
8
0
10
158.9082148
20
-66.6158525
11
154.1071215
21
-84.5337766
0
LINE
8
0
10
157.2499213
20
-150.0884132
11
175.1678454
21
-154.8895065
0
LINE
8
0
10
175.1678454
20
-154.8895065
11
179.9689387
21
-136.9715824
0
LINE
8
0
10
179.9689387
20
-136.9715824
11
162.0510146
21
-132.1704891
0
LINE
8
0
10
162.0510146
20
-132.1704891
11
157.2499213
21
-150.0884132
0
LINE
8
0
10
162.4269493
20
-130.7674818
11
180.3448734
21
-135.5685751
0
LINE
8
0
10
180.3448734
20
-135.5685751
11
185.1459667
21
-117.650651
0
LINE
8
0
10
185.1459667
20
-117.650651
11
167.2280426
21
-112.8495577
0
LINE
8
0
10
167.2280426
20
-112.8495577
11
162.4269493
21
-130.7674818
0
LINE
8
0
10
167.6039772
20
-111.4465505
11
185.5219013
21
-116.2476438
0
LINE
8
0
10
185.5219013
20
-116.2476438
11
190.3229946
21
-98.3297197
0
LINE
8
0
10
190.3229946
20
-98.3297197
11
172.4050705
21
-93.5286264
0
LINE
8
0
10
172.4050705
20
-93.5286264
11
167.6039772
21
-111.4465505
0
LINE
8
0
10
172.7810052
20
-92.1256191
11
190.6989293
21
-96.9267124
0
LINE
8
0
10
190.6989293
20
-96.9267124
11
195.5000226
21
-79.0087883
0
LINE
8
0
10
195.5000226
20
-79.0087883
11
177.5820985
21
-74.207695
0
LINE
8
0
10
177.5820985
20
-74.207695
11
172.7810052
21
-92.1256191
0
LINE
8
0
10
132.3652883
20
-162.688469
11
149.7965864
21
-169.0329427
0
LINE
8
0
10
149.7965864
20
-169.0329427
11
156.1410601
21
-151.6016446
0
LINE
8
0
10
156.1410601
20
-151.6016446
11
138.709762
21
-145.2571709
0
LINE
8
0
10
138.709762
20
-145.2571709
11
132.3652883
21
-162.688469
0
LINE
8
0
10
151.618644
20
-168.7983092
11
168.4306534
21
-176.637878
0
LINE
8
0
10
168.4306534
20
-176.637878
11
176.2702222
21
-159.8258686
0
LINE
8
0
10
176.2702222
20
-159.8258686
11
159.4582128
21
-151.9862998
0
LINE
8
0
10
159.4582128
20
-151.9862998
11
151.618644
21
-168.7983092
0
LINE
8
0
10
170.2662272
20
-176.5629402
11
186.3309984
21
-185.8379402
0
LINE
8
0
10
186.3309984
20
-185.8379402
11
195.6059984
21
-169.773169
0
LINE
8
0
10
195.6059984
20
-169.773169
11
179.5412272
21
-160.498169
0
LINE
8
0
10
179.5412272
20
-160.498169
11
170.2662272
21
-176.5629402
0
LINE
8
0
10
160.2649772
20
-193.8856133
11
176.3297484
21
-203.1606133
0
LINE
8
0
10
176.3297484
20
-203.1606133
11
185.6047484
21
-187.0958421
0
LINE
8
0
10
185.6047484
20
-187.0958421
11
169.5399772
21
-177.8208421
0
LINE
8
0
10
169.5399772
20
-177.8208421
11
160.2649772
21
-193.8856133
0
LINE
8
0
10
200.0646999
20
-205.8654713
11
209.3396999
21
-189.8007001
0
LINE
8
0
10
209.3396999
20
-189.8007001
11
193.2749287
21
-180.5257001
0
LINE
8
0
10
193.2749287
20
-180.5257001
11
183.9999287
21
-196.5904713
0
LINE
8
0
10
183.9999287
20
-196.5904713
11
200.0646999
21
-205.8654713
0
ENDSEC
0
EOF