0
SECTION
2
HEADER
9
$INSUNITS
70
4
0
ENDSEC
0
SECTION
2
TABLES
0
TABLE
2
LTYPE
0
LTYPE
72
65
70
64
2
CONTINUOUS
3
______
73
0
40
0
0
ENDTAB
0
TABLE
2
LAYER
0
ENDTAB
0
ENDSEC
0
SECTION
2
ENTITIES
0
LINE
8
0
10
59.0449832
20
-129.2096792
11
106.4260599
21
-141.9054005
0
LINE
8
0
10
59.0449832
20
-129.2096792
11
79.5065699
21
-52.8459982
0
LINE
8
0
10
79.5065699
20
-52.8459982
11
108.4891743
21
-60.6118637
0
LINE
8
0
10
107.7201551
20
-137.0757713
11
106.4260599
21
-141.9054005
0
LINE
8
0
10
107.7201551
20
-137.0757713
11
127.0410864
21
-142.2527993
0
LINE
8
0
10
128.3351816
20
-137.4231701
11
127.0410864
21
-142.2527993
0
LINE
8
0
10
109.7832695
20
-55.7822345
11
129.1042008
21
-60.9592625
0
LINE
8
0
10
108.4891743
20
-60.6118637
11
109.7832695
21
-55.7822345
0
LINE
8
0
10
128.3351816
20
-137.4231701
11
138.916899
21
-140.2585327
0
LINE
8
0
10
157.8113937
20
-66.0631411
11
158.4584413
21
-63.6483266
0
LINE
8
0
10
130.398296
20
-56.1296333
11
158.4584413
21
-63.6483266
0
LINE
8
0
10
129.1042008
20
-60.9592625
11
130.398296
21
-56.1296333
0
LINE
8
0
10
138.2698514
20
-142.6733473
11
157.5907827
21
-147.8503752
0
LINE
8
0
10
138.916899
20
-140.2585327
11
138.2698514
21
-142.6733473
0
LINE
8
0
10
176.4852775
20
-73.6549837
11
177.1323251
21
-71.2401691
0
LINE
8
0
10
157.8113937
20
-66.0631411
11
177.1323251
21
-71.2401691
0
LINE
8
0
10
156.9437351
20
-150.2651899
11
175.3446221
21
-155.1956927
0
LINE
8
0
10
175.3446221
20
-155.1956927
11
195.8062088
21
-78.8320116
0
LINE
8
0
10
157.5907827
20
-147.8503752
11
156.9437351
21
-150.2651899
0
LINE
8
0
10
176.4852775
20
-73.6549837
11
195.8062088
21
-78.8320116
0
LINE
8
0
10
132.0448601
20
-162.8378871
11
149.9460045
21
-169.3533709
0
LINE
8
0
10
149.9460045
20
-169.3533709
11
156.4614883
21
-151.4522265
0
LINE
8
0
10
156.4614883
20
-151.4522265
11
138.5603439
21
-144.9367427
0
LINE
8
0
10
138.5603439
20
-144.9367427
11
132.0448601
21
-162.8378871
0
LINE
8
0
10
151.2864125
20
-168.9192316
11
168.5515758
21
-176.9701095
0
LINE
8
0
10
168.5515758
20
-176.9701095
11
176.6024537
21
-159.7049462
0
LINE
8
0
10
176.6024537
20
-159.7049462
11
159.3372904
21
-151.6540683
0
LINE
8
0
10
159.3372904
20
-151.6540683
11
151.2864125
21
-168.9192316
0
LINE
8
0
10
169.9247208
20
-176.6544466
11
186.4225048
21
-186.1794466
0
LINE
8
0
10
186.4225048
20
-186.1794466
11
195.9475048
21
-169.6816626
0
LINE
8
0
10
195.9475048
20
-169.6816626
11
179.4497208
21
-160.1566626
0
LINE
8
0
10
179.4497208
20
-160.1566626
11
169.9247208
21
-176.6544466
0
LINE
8
0
10
159.9234708
20
-193.9771197
11
176.4212548
21
-203.5021197
0
LINE
8
0
10
176.4212548
20
-203.5021197
11
185.9462548
21
-187.0043357
0
LINE
8
0
10
185.9462548
20
-187.0043357
11
169.4484708
21
-177.4793357
0
LINE
8
0
10
169.4484708
20
-177.4793357
11
159.9234708
21
-193.9771197
0
LINE
8
0
10
200.1562063
20
-206.2069777
11
209.6812063
21
-189.7091937
0
LINE
8
0
10
209.6812063
20
-189.7091937
11
193.1834223
21
-180.1841937
0
LINE
8
0
10
193.1834223
20
-180.1841937
11
183.6584223
21
-196.6819777
0
LINE
8
0
10
183.6584223
20
-196.6819777
11
200.1562063
21
-206.2069777
0
ENDSEC
0
EOF